<?xml version="1.0" encoding="UTF-8"?>
<svg width="285px" height="167px" viewBox="0 0 285 167" version="1.1" xmlns="http://www.w3.org/2000/svg" xmlns:xlink="http://www.w3.org/1999/xlink">
    <!-- Generator: Sketch 49.3 (51167) - http://www.bohemiancoding.com/sketch -->
    <title>Shape</title>
    <desc>Created with Sketch.</desc>
    <defs></defs>
    <g id="Page-1" stroke="none" stroke-width="1" fill="none" fill-rule="evenodd">
        <g id="angle-arrow-down-primary" transform="translate(142.500000, 83.500000) scale(1, -1) translate(-142.500000, -83.500000) " fill="#FFFFFF" fill-rule="nonzero">
            <path d="M282.082,17.51 L267.808,3.24 C265.906,1.334 263.715,0.384 261.238,0.384 C258.768,0.384 256.578,1.334 254.675,3.24 L142.465,115.44 L30.263,3.24 C28.36,1.335 26.17,0.385 23.696,0.385 C21.221,0.385 19.031,1.335 17.129,3.241 L2.856,17.516 C0.95,19.417 0,21.607 0,24.082 C0,26.555 0.953,28.745 2.856,30.647 L135.9,163.693 C137.8,165.596 139.992,166.547 142.466,166.547 C144.94,166.547 147.126,165.597 149.028,163.693 L282.082,30.647 C283.984,28.744 284.929,26.554 284.929,24.082 C284.929,21.607 283.983,19.417 282.081,17.512 L282.082,17.51 Z" id="Shape"></path>
        </g>
    </g>
</svg>