<?xml version="1.0" encoding="UTF-8"?>
<svg width="402px" height="110px" viewBox="0 0 402 110" version="1.1" xmlns="http://www.w3.org/2000/svg" xmlns:xlink="http://www.w3.org/1999/xlink">
    <!-- Generator: Sketch 51.1 (57501) - http://www.bohemiancoding.com/sketch -->
    <title>Shape</title>
    <desc>Created with Sketch.</desc>
    <defs></defs>
    <g id="Page-1" stroke="none" stroke-width="1" fill="none" fill-rule="evenodd">
        <g id="minus" fill="#5B616A" fill-rule="nonzero">
            <path d="M394,8.174 C388.67,2.844 382.194,0.179 374.583,0.179 L27.406,0.179 C19.796,0.179 13.322,2.839 7.992,8.169 C2.662,13.5 0,19.97 0,27.586 L0,82.406 C0,90.023 2.662,96.492 7.992,101.816 C13.322,107.148 19.795,109.81 27.406,109.81 L374.582,109.81 C382.192,109.81 388.668,107.15 393.999,101.817 C399.319,96.493 401.989,90.024 401.989,82.407 L401.989,27.587 C401.989,19.972 399.329,13.5 393.999,8.174 L394,8.174 Z" id="Shape"></path>
        </g>
    </g>
</svg>